<?xml version="1.0" encoding="UTF-8" standalone="no"?>
<svg
   xmlns:dc="http://purl.org/dc/elements/1.1/"
   xmlns:cc="http://creativecommons.org/ns#"
   xmlns:rdf="http://www.w3.org/1999/02/22-rdf-syntax-ns#"
   xmlns:svg="http://www.w3.org/2000/svg"
   xmlns="http://www.w3.org/2000/svg"
   xmlns:sodipodi="http://sodipodi.sourceforge.net/DTD/sodipodi-0.dtd"
   xmlns:inkscape="http://www.inkscape.org/namespaces/inkscape"
   aria-labelledby="simpleicons-eventbrite-icon"
   role="img"
   viewBox="0 0 24 24"
   version="1.1"
   id="svg5"
   sodipodi:docname="eventbriteIcon.svg"
   inkscape:version="0.92.3 (2405546, 2018-03-11)">
  <metadata
     id="metadata11">
    <rdf:RDF>
      <cc:Work
         rdf:about="">
        <dc:format>image/svg+xml</dc:format>
        <dc:type
           rdf:resource="http://purl.org/dc/dcmitype/StillImage" />
      </cc:Work>
    </rdf:RDF>
  </metadata>
  <defs
     id="defs9" />
  <sodipodi:namedview
     pagecolor="#ffffff"
     bordercolor="#666666"
     borderopacity="1"
     objecttolerance="10"
     gridtolerance="10"
     guidetolerance="10"
     inkscape:pageopacity="0"
     inkscape:pageshadow="2"
     inkscape:window-width="1558"
     inkscape:window-height="815"
     id="namedview7"
     showgrid="false"
     inkscape:zoom="9.8333333"
     inkscape:cx="12"
     inkscape:cy="12"
     inkscape:window-x="0"
     inkscape:window-y="0"
     inkscape:window-maximized="0"
     inkscape:current-layer="svg5" />
  <title
     id="simpleicons-eventbrite-icon">Eventbrite icon</title>
  <path
     d="M8.128 0h11.011c.176 0 .264.09.264.267v4.124c0 .18-.09.267-.264.267H9.422c-.177 0-.265.09-.265.27v4.491c.045.18.135.27.266.27h8.617c.179 0 .269.09.269.27v3.982c0 .18-.09.27-.269.27H9.429c-.134 0-.221.09-.266.27V19c0 .179.09.269.265.269h10.046c.135 0 .224.075.27.21.06.225.104.494.119.837.015.346-.015.72-.119 1.154-.104.434-.285.837-.54 1.197-.254.374-.673.689-1.242.944-.585.254-1.288.389-2.096.389H4.399c-.178 0-.266-.091-.266-.269V3.997c0-1.107.389-2.052 1.164-2.829C6.076.389 7.017 0 8.128 0z"
     id="path3" />
  <path
     style="stroke-width:0.10169491;fill:#ffffff"
     d="M 4.1953711,23.811049 C 4.1668502,23.736724 4.1562241,19.055867 4.1717575,13.409144 L 4.2,3.1423729 4.437436,2.5541105 C 4.7698593,1.7305109 5.614822,0.84479135 6.469686,0.42383436 L 7.1445268,0.09152542 13.189309,0.06225627 c 4.844704,-0.0234583 6.061278,-0.0032687 6.127874,0.10169492 0.106593,0.16800302 0.109337,4.15743571 0.003,4.32490931 -0.06162,0.097028 -1.240931,0.1322417 -5.108612,0.1525424 L 9.1830508,4.6677966 V 7.159322 9.6508475 l 4.5254242,0.050847 4.525423,0.050847 v 2.1864405 2.186441 l -4.525423,0.05085 -4.5254242,0.05085 -0.027173,2.50463 -0.027173,2.504631 0.2305632,0.06178 c 0.1268098,0.03398 2.48551,0.0624 5.241555,0.06317 l 5.010992,0.0014 0.108695,0.279661 c 0.05978,0.153813 0.08927,0.631363 0.06553,1.06122 -0.03428,0.620727 -0.111425,0.92021 -0.374866,1.455335 -0.371719,0.755067 -0.793315,1.121626 -1.721868,1.497089 -0.573831,0.23203 -0.576506,0.23213 -7.008063,0.261142 -5.2772347,0.02381 -6.4433373,0.0047 -6.4858702,-0.10611 z"
     id="path3716"
     inkscape:connector-curvature="0" />
</svg>
