<?xml version="1.0" encoding="UTF-8"?>
<svg xmlns="http://www.w3.org/2000/svg" xmlns:xlink="http://www.w3.org/1999/xlink" viewBox="0 0 32 32" version="1.1" width="50px" height="50px">
<g id="surface1">
<path style=" " d="M 21.5 4 C 19.664063 4 17.996094 4.765625 16.8125 6 L 7 6 C 5.355469 6 4 7.355469 4 9 L 4 25 C 4 26.644531 5.355469 28 7 28 L 23 28 C 24.644531 28 26 26.644531 26 25 L 26 15.5625 C 27.03125 14.078125 28 12.554688 28 10.5 C 28 6.921875 25.078125 4 21.5 4 Z M 21.5 6 C 23.996094 6 26 8.003906 26 10.5 C 26 12.039063 25.230469 13.207031 24.125 14.78125 C 23.242188 16.039063 22.269531 17.660156 21.5 19.65625 C 20.730469 17.660156 19.757813 16.039063 18.875 14.78125 C 17.769531 13.207031 17 12.039063 17 10.5 C 17 8.003906 19.003906 6 21.5 6 Z M 7 8 L 15.5 8 C 15.175781 8.769531 15 9.617188 15 10.5 C 15 12.015625 15.53125 13.234375 16.21875 14.375 L 6 24.5625 L 6 9 C 6 8.433594 6.433594 8 7 8 Z M 10 9 C 8.34375 9 7 10.34375 7 12 C 7 13.65625 8.34375 15 10 15 C 11.65625 15 13 13.65625 13 12 L 10 12 L 10 13 L 11.71875 13 C 11.371094 13.59375 10.738281 14 10 14 C 8.898438 14 8 13.101563 8 12 C 8 10.898438 8.898438 10 10 10 C 10.550781 10 11.042969 10.230469 11.40625 10.59375 L 12.125 9.875 C 11.582031 9.332031 10.828125 9 10 9 Z M 21.5 9 C 20.671875 9 20 9.671875 20 10.5 C 20 11.328125 20.671875 12 21.5 12 C 22.328125 12 23 11.328125 23 10.5 C 23 9.671875 22.328125 9 21.5 9 Z M 17.34375 16.0625 C 18.425781 17.605469 19.535156 19.230469 20.15625 21.625 C 20.167969 21.667969 20.203125 21.804688 20.21875 21.875 L 15.875 17.53125 Z M 24 18.6875 L 24 25 C 24 25.40625 23.777344 25.75 23.4375 25.90625 L 23.84375 25.5 L 21.3125 22.96875 C 21.378906 22.976563 21.445313 23 21.5 23 C 21.722656 23 22.039063 22.933594 22.28125 22.75 C 22.523438 22.566406 22.628906 22.347656 22.6875 22.1875 C 22.808594 21.867188 22.816406 21.722656 22.84375 21.625 C 23.136719 20.492188 23.539063 19.546875 24 18.6875 Z M 14.46875 18.96875 L 21.5 26 L 7.4375 26 Z "/>
</g>
</svg>
