<?xml version="1.0" encoding="UTF-8" standalone="no"?>
<svg
   xmlns:dc="http://purl.org/dc/elements/1.1/"
   xmlns:cc="http://creativecommons.org/ns#"
   xmlns:rdf="http://www.w3.org/1999/02/22-rdf-syntax-ns#"
   xmlns:svg="http://www.w3.org/2000/svg"
   xmlns="http://www.w3.org/2000/svg"
   xmlns:sodipodi="http://sodipodi.sourceforge.net/DTD/sodipodi-0.dtd"
   xmlns:inkscape="http://www.inkscape.org/namespaces/inkscape"
   viewBox="0 0 32 32"
   version="1.1"
   width="50px"
   height="50px"
   id="svg5"
   sodipodi:docname="gMapsIcon.svg"
   inkscape:version="0.92.3 (2405546, 2018-03-11)">
  <metadata
     id="metadata11">
    <rdf:RDF>
      <cc:Work
         rdf:about="">
        <dc:format>image/svg+xml</dc:format>
        <dc:type
           rdf:resource="http://purl.org/dc/dcmitype/StillImage" />
      </cc:Work>
    </rdf:RDF>
  </metadata>
  <defs
     id="defs9" />
  <sodipodi:namedview
     pagecolor="#ffffff"
     bordercolor="#666666"
     borderopacity="1"
     objecttolerance="10"
     gridtolerance="10"
     guidetolerance="10"
     inkscape:pageopacity="0"
     inkscape:pageshadow="2"
     inkscape:window-width="1644"
     inkscape:window-height="838"
     id="namedview7"
     showgrid="false"
     inkscape:zoom="4.72"
     inkscape:cx="25"
     inkscape:cy="25"
     inkscape:window-x="0"
     inkscape:window-y="0"
     inkscape:window-maximized="0"
     inkscape:current-layer="svg5" />
  <g
     id="surface1">
    <path
       style=" "
       d="M 21.5 4 C 19.664063 4 17.996094 4.765625 16.8125 6 L 7 6 C 5.355469 6 4 7.355469 4 9 L 4 25 C 4 26.644531 5.355469 28 7 28 L 23 28 C 24.644531 28 26 26.644531 26 25 L 26 15.5625 C 27.03125 14.078125 28 12.554688 28 10.5 C 28 6.921875 25.078125 4 21.5 4 Z M 21.5 6 C 23.996094 6 26 8.003906 26 10.5 C 26 12.039063 25.230469 13.207031 24.125 14.78125 C 23.242188 16.039063 22.269531 17.660156 21.5 19.65625 C 20.730469 17.660156 19.757813 16.039063 18.875 14.78125 C 17.769531 13.207031 17 12.039063 17 10.5 C 17 8.003906 19.003906 6 21.5 6 Z M 7 8 L 15.5 8 C 15.175781 8.769531 15 9.617188 15 10.5 C 15 12.015625 15.53125 13.234375 16.21875 14.375 L 6 24.5625 L 6 9 C 6 8.433594 6.433594 8 7 8 Z M 10 9 C 8.34375 9 7 10.34375 7 12 C 7 13.65625 8.34375 15 10 15 C 11.65625 15 13 13.65625 13 12 L 10 12 L 10 13 L 11.71875 13 C 11.371094 13.59375 10.738281 14 10 14 C 8.898438 14 8 13.101563 8 12 C 8 10.898438 8.898438 10 10 10 C 10.550781 10 11.042969 10.230469 11.40625 10.59375 L 12.125 9.875 C 11.582031 9.332031 10.828125 9 10 9 Z M 21.5 9 C 20.671875 9 20 9.671875 20 10.5 C 20 11.328125 20.671875 12 21.5 12 C 22.328125 12 23 11.328125 23 10.5 C 23 9.671875 22.328125 9 21.5 9 Z M 17.34375 16.0625 C 18.425781 17.605469 19.535156 19.230469 20.15625 21.625 C 20.167969 21.667969 20.203125 21.804688 20.21875 21.875 L 15.875 17.53125 Z M 24 18.6875 L 24 25 C 24 25.40625 23.777344 25.75 23.4375 25.90625 L 23.84375 25.5 L 21.3125 22.96875 C 21.378906 22.976563 21.445313 23 21.5 23 C 21.722656 23 22.039063 22.933594 22.28125 22.75 C 22.523438 22.566406 22.628906 22.347656 22.6875 22.1875 C 22.808594 21.867188 22.816406 21.722656 22.84375 21.625 C 23.136719 20.492188 23.539063 19.546875 24 18.6875 Z M 14.46875 18.96875 L 21.5 26 L 7.4375 26 Z "
       id="path2" />
  </g>
  <path
     style="fill:#ffffff;stroke-width:0.21186441"
     d="M 8.8728032,43.052072 C 8.0479,42.621138 7.5657801,42.178985 7.1007286,41.426903 L 6.4618644,40.393731 6.4003519,27.029493 C 6.3564986,17.50191 6.4082105,13.413221 6.5804801,12.787347 6.8997812,11.627291 7.8368006,10.522774 8.9649394,9.9766508 9.844246,9.550986 10.195357,9.5338983 18.06248,9.5338983 h 8.182935 l 0.955488,-0.826968 c 3.855182,-3.336637 9.741714,-3.0524502 13.443165,0.6490019 3.628409,3.6284098 3.935123,8.6670208 0.820504,13.4790638 l -0.99847,1.542624 v 7.871418 c 0,7.551144 -0.01801,7.908631 -0.442752,8.786023 -0.529183,1.093142 -1.611388,2.035405 -2.718748,2.367178 -0.567443,0.170009 -4.740909,0.241829 -14.052871,0.241829 H 10.006013 Z m 19.4110948,-7.88258 c -3.02798,-3.029661 -5.600757,-5.508475 -5.717282,-5.508475 -0.243877,0 -10.914074,10.613902 -10.914074,10.856494 0,0.08825 4.980775,0.160455 11.068388,0.160455 h 11.068388 z m 8.996784,4.886809 c 0.135098,-0.252432 0.21553,-2.428778 0.209454,-5.667373 l -0.0099,-5.257572 -0.525185,1.008966 c -0.288851,0.55493 -0.816404,1.913449 -1.172343,3.018928 -0.678491,2.107303 -1.103133,2.645835 -2.086286,2.645835 -0.464019,0 -0.279061,0.253292 1.460585,2.000201 1.711648,1.718797 1.953318,2.046674 1.717754,2.330508 -0.175142,0.211037 -0.190949,0.330308 -0.04378,0.330308 0.126695,0 0.329046,-0.184411 0.449671,-0.409801 z M 17.542476,30.444824 25.443002,22.54219 24.693996,20.963892 C 23.453217,18.349336 23.217353,15.678688 24.02601,13.400424 L 24.345611,12.5 h -7.08806 c -6.805574,0 -7.104947,0.01689 -7.5117883,0.423729 -0.414153,0.414153 -0.4237288,0.706214 -0.4237288,12.923729 0,6.875 0.071981,12.5 0.1599576,12.5 0.087977,0 3.7151945,-3.556185 8.0604845,-7.902634 z m 13.691202,2.130273 c -0.629676,-1.900703 -1.508392,-3.690822 -2.783163,-5.669853 -0.674267,-1.046771 -1.276865,-1.903676 -1.339108,-1.904232 -0.06224,-5.51e-4 -0.632084,0.52443 -1.266313,1.166636 l -1.153144,1.167649 3.384336,3.3893 c 1.861383,1.864117 3.416252,3.293549 3.455263,3.176517 0.03901,-0.117031 -0.09503,-0.713739 -0.297871,-1.326017 z m 3.582271,-4.305036 c 0.62543,-1.274169 1.927776,-3.508408 2.8941,-4.964976 2.346796,-3.537389 2.809909,-4.578168 2.920578,-6.563603 0.123909,-2.222958 -0.453059,-3.716458 -2.054356,-5.317753 C 36.968218,9.8156754 35.483778,9.245315 33.233333,9.3708316 29.554869,9.5759947 26.823404,12.198211 26.534119,15.8021 c -0.169313,2.109282 0.440799,3.697364 2.778182,7.231422 1.805578,2.729983 3.342792,5.508465 3.946701,7.133573 0.125087,0.336606 0.270714,0.568727 0.323615,0.515824 0.0529,-0.0529 0.607902,-1.138688 1.233332,-2.412858 z"
     id="path3716"
     inkscape:connector-curvature="0"
     transform="scale(0.64)" />
  <path
     style="fill:#ffffff;stroke-width:0.21186441"
     d="m 14.088983,23.049459 c -1.825734,-0.638189 -3.205082,-2.734333 -3.025965,-4.598445 0.126856,-1.320208 1.012819,-2.838408 2.061288,-3.532251 1.097886,-0.726547 2.858551,-0.907711 4.124188,-0.42436 1.317249,0.503062 1.586277,0.875157 1.032867,1.428567 -0.399468,0.399468 -0.473471,0.40817 -0.935953,0.110054 -1.403277,-0.904556 -3.566926,-0.436722 -4.415236,0.954682 -0.574503,0.942303 -0.574503,2.582285 0,3.524588 0.582438,0.955319 2.055918,1.604152 3.202903,1.41037 0.80349,-0.135748 2.299128,-1.180249 2.299128,-1.605628 0,-0.104455 -0.619703,-0.189917 -1.377118,-0.189917 h -1.377119 v -0.635594 -0.635593 h 2.224576 2.224577 v 0.538101 c 0,0.711952 -0.66269,1.971672 -1.410682,2.681592 -1.181781,1.121632 -3.068651,1.518718 -4.627454,0.973834 z"
     id="path3718"
     inkscape:connector-curvature="0"
     transform="scale(0.64)" />
  <path
     style="fill:#ffffff;stroke-width:0.21186441"
     d="m 32.076271,17.923729 c -0.559627,-0.559628 -0.720339,-0.895231 -0.720339,-1.504237 0,-1.109354 1.115223,-2.224577 2.224576,-2.224577 1.109354,0 2.224577,1.115223 2.224577,2.224577 0,1.109353 -1.115223,2.224576 -2.224577,2.224576 -0.609006,0 -0.944609,-0.160712 -1.504237,-0.720339 z"
     id="path3720"
     inkscape:connector-curvature="0"
     transform="scale(0.64)" />
</svg>
