<?xml version="1.0" encoding="UTF-8" standalone="no"?>
<!-- Svg Vector Icons : http://www.onlinewebfonts.com/icon -->

<svg
   xmlns:dc="http://purl.org/dc/elements/1.1/"
   xmlns:cc="http://creativecommons.org/ns#"
   xmlns:rdf="http://www.w3.org/1999/02/22-rdf-syntax-ns#"
   xmlns:svg="http://www.w3.org/2000/svg"
   xmlns="http://www.w3.org/2000/svg"
   xmlns:sodipodi="http://sodipodi.sourceforge.net/DTD/sodipodi-0.dtd"
   xmlns:inkscape="http://www.inkscape.org/namespaces/inkscape"
   version="1.1"
   x="0px"
   y="0px"
   viewBox="0 0 1000 1000"
   enable-background="new 0 0 1000 1000"
   xml:space="preserve"
   id="svg10"
   sodipodi:docname="moviesIcon.svg"
   inkscape:version="0.92.3 (2405546, 2018-03-11)"><defs
   id="defs14" /><sodipodi:namedview
   pagecolor="#ffffff"
   bordercolor="#666666"
   borderopacity="1"
   objecttolerance="10"
   gridtolerance="10"
   guidetolerance="10"
   inkscape:pageopacity="0"
   inkscape:pageshadow="2"
   inkscape:window-width="1404"
   inkscape:window-height="780"
   id="namedview12"
   showgrid="false"
   inkscape:zoom="0.236"
   inkscape:cx="500"
   inkscape:cy="500"
   inkscape:window-x="0"
   inkscape:window-y="0"
   inkscape:window-maximized="0"
   inkscape:current-layer="svg10" />
<metadata
   id="metadata2"> Svg Vector Icons : http://www.onlinewebfonts.com/icon <rdf:RDF><cc:Work
     rdf:about=""><dc:format>image/svg+xml</dc:format><dc:type
       rdf:resource="http://purl.org/dc/dcmitype/StillImage" /></cc:Work></rdf:RDF></metadata>
<g
   id="g8"><g
     transform="translate(0.000000,511.000000) scale(0.100000,-0.100000)"
     id="g6"><path
       d="M3803.5,4355.3c-908.9-123.2-1736.9-527.6-2405.1-1172.7c-695.2-672-1105.3-1477-1265.1-2478.3c-44.3-271.5-44.3-914.7,0-1186.2C285.3-1437,664.7-2209.2,1298.2-2862C2132-3715,3193-4163.7,4385-4163.7c639.3,0,1222.8,130.9,1837,410.1c631.6,288.8,1217,415.9,1798.5,392.8c477.5-21.2,828-115.5,1247.8-331.2c267.7-138.7,325.4-150.2,458.3-84.7c196.4,94.4,233,360.1,73.2,510.3c-84.7,80.9-481.4,275.4-737.5,364c-348.5,119.4-631.6,165.6-1074.5,181l-389,11.5l115.5,144.4c379.4,475.6,687.5,1109.2,826.1,1696.5c333.1,1421.1-92.4,2942.3-1109.2,3970.6C6740,3802.6,5885.1,4230.1,4912.6,4357.2C4633.4,4393.8,4080.7,4391.9,3803.5,4355.3z M4621.8,3303.9c329.3-82.8,614.3-408.2,670.1-764.5c69.3-456.4-234.9-912.7-689.4-1032.1c-523.8-134.8-1053.3,217.6-1145.7,764.5c-71.3,419.8,192.6,858.8,602.7,1010.9C4227.1,3344.3,4435.1,3352,4621.8,3303.9z M2465.1,1757.6c163.7-44.3,292.7-119.4,425.6-250.3C3345.2,1060.5,3220,307.6,2646.2,26.5c-668.2-327.4-1426.9,223.4-1326.7,959C1394.5,1524.6,1941.4,1892.4,2465.1,1757.6z M6751.6,1751.8c568-157.9,849.2-791.4,585.4-1315.2c-61.6-121.3-236.8-310-346.6-375.5C6520.5-214.2,5919.7-39,5682.9,442.4c-182.9,367.8-115.5,781.8,169.5,1064.9C6102.7,1755.7,6424.2,1842.3,6751.6,1751.8z M4510.2,455.9C4633.4,409.7,4747,246,4747,111.2c0-86.7-57.8-208-127.1-273.5c-196.4-182.9-535.3-82.8-606.6,181c-61.6,229.2,115.5,458.3,352.4,458.3C4415.8,477.1,4479.4,467.4,4510.2,455.9z M3354.8-776.5c236.8-80.9,427.5-254.2,539.2-491c59.7-125.2,71.2-169.5,78.9-327.4c11.6-225.3-27-383.2-130.9-543c-327.4-504.5-997.5-593.1-1423-186.8c-554.6,527.6-277.3,1446.2,479.5,1588.6C3017.8-713,3225.8-730.3,3354.8-776.5z M5856.2-738c437.1-79,758.7-464.1,758.7-908.9c0-279.2-86.7-483.3-286.9-675.9c-362-342.8-912.7-344.7-1270.9-1.9c-367.8,350.5-390.9,916.6-52,1294C5222.7-790,5540.4-680.2,5856.2-738z"
       id="path4" /></g></g>
<path
   style="stroke-width:4.237288;fill:#ffffff"
   d="M 365.40192,919.0786 C 274.22025,902.55017 203.15209,865.54534 137.5239,800.42373 57.739462,721.25513 17.834589,628.93708 13.81098,514.21966 11.534158,449.30502 17.629631,409.39433 38.745089,350.96122 84.541246,224.22885 201.49178,120.21243 336.86441,85.812331 c 56.13455,-14.264582 148.545,-13.534655 205.55712,1.623643 175.44885,46.648086 298.4569,190.804296 318.27737,372.997106 10.71822,98.52353 -20.68593,210.34984 -82.69068,294.45171 -10.74352,14.5722 -19.53364,27.16241 -19.53364,27.97822 0,0.8158 22.40466,2.64051 49.78813,4.05491 56.01106,2.8931 86.85805,10.04331 130.84343,30.3289 36.27153,16.72805 48.182,27.6814 48.182,44.31004 0,11.89433 -15.9792,29.96856 -26.49483,29.96856 -2.29106,0 -21.46102,-7.78775 -42.59996,-17.3061 C 831.1522,835.02682 739.20538,835.84826 641.41114,876.69203 531.4628,922.61199 452.11597,934.7972 365.40192,919.0786 Z M 345.33898,761.20665 c 46.9983,-23.07762 66.78883,-79.97707 44.11105,-126.82313 -43.6065,-90.07899 -177.58562,-56.24513 -177.58562,44.84589 0,66.16563 73.60751,111.37381 133.47457,81.97724 z m 264.06971,-0.0453 c 72.57809,-33.41601 69.82262,-141.37262 -4.39971,-172.37707 -39.9308,-16.68005 -92.12856,-0.0958 -114.72275,36.44923 -49.64555,80.29979 33.60894,175.29954 119.12246,135.92784 z M 465.04237,524.60419 c 12.09352,-13.53461 12.4178,-35.04927 0.75178,-49.88021 -7.12487,-9.05783 -12.32229,-11.16466 -27.54237,-11.16466 -41.78594,0 -55.43641,50.29415 -18.71483,68.95339 17.92606,9.10869 32.57487,6.56284 45.50542,-7.90852 z M 265.00101,509.64441 C 353.7289,467.93739 323.29907,332.20339 225.221,332.20339 c -54.61668,0 -94.16912,38.94993 -94.42758,92.98916 -0.33381,69.79275 70.52923,114.38423 134.20759,84.45186 z m 435.84382,-3.81704 c 45.6778,-30.71883 57.18047,-88.96831 26.51915,-134.29294 -17.86839,-26.41368 -42.7161,-39.33104 -75.65686,-39.33104 -80.88115,0 -124.27788,91.85794 -72.16144,152.74425 21.6747,25.32202 42.97449,34.27723 77.69746,32.66694 21.31813,-0.98869 31.73008,-3.80344 43.60169,-11.78721 z M 484.84169,351.68731 c 48.53365,-28.44262 60.97975,-93.92011 26.42068,-138.99631 -57.37224,-74.83192 -176.44528,-26.69094 -166.73322,67.40986 6.97634,67.59423 81.89884,105.81916 140.31254,71.58645 z"
   id="path3719"
   inkscape:connector-curvature="0" /></svg>