<?xml version="1.0" encoding="UTF-8" standalone="no"?>
<svg
   xmlns:dc="http://purl.org/dc/elements/1.1/"
   xmlns:cc="http://creativecommons.org/ns#"
   xmlns:rdf="http://www.w3.org/1999/02/22-rdf-syntax-ns#"
   xmlns:svg="http://www.w3.org/2000/svg"
   xmlns="http://www.w3.org/2000/svg"
   xmlns:sodipodi="http://sodipodi.sourceforge.net/DTD/sodipodi-0.dtd"
   xmlns:inkscape="http://www.inkscape.org/namespaces/inkscape"
   viewBox="0 0 512 512"
   version="1.1"
   id="svg4"
   sodipodi:docname="searchIcon.svg"
   inkscape:version="0.92.3 (2405546, 2018-03-11)">
  <metadata
     id="metadata10">
    <rdf:RDF>
      <cc:Work
         rdf:about="">
        <dc:format>image/svg+xml</dc:format>
        <dc:type
           rdf:resource="http://purl.org/dc/dcmitype/StillImage" />
      </cc:Work>
    </rdf:RDF>
  </metadata>
  <defs
     id="defs8" />
  <sodipodi:namedview
     pagecolor="#ffffff"
     bordercolor="#666666"
     borderopacity="1"
     objecttolerance="10"
     gridtolerance="10"
     guidetolerance="10"
     inkscape:pageopacity="0"
     inkscape:pageshadow="2"
     inkscape:window-width="1665"
     inkscape:window-height="828"
     id="namedview6"
     showgrid="false"
     inkscape:zoom="0.4609375"
     inkscape:cx="256"
     inkscape:cy="256"
     inkscape:window-x="0"
     inkscape:window-y="0"
     inkscape:window-maximized="0"
     inkscape:current-layer="svg4" />
  <path
     d="M505 442.7L405.3 343c-4.5-4.5-10.6-7-17-7H372c27.6-35.3 44-79.7 44-128C416 93.1 322.9 0 208 0S0 93.1 0 208s93.1 208 208 208c48.3 0 92.7-16.4 128-44v16.3c0 6.4 2.5 12.5 7 17l99.7 99.7c9.4 9.4 24.6 9.4 33.9 0l28.3-28.3c9.4-9.4 9.4-24.6.1-34zM208 336c-70.7 0-128-57.2-128-128 0-70.7 57.2-128 128-128 70.7 0 128 57.2 128 128 0 70.7-57.2 128-128 128z"
     id="path2" />
  <path
     style="stroke-width:2.16949153;fill:#ffffff"
     d="m 453.85763,510.25031 c -3.58901,-0.55438 -23.27761,-18.56378 -58.20288,-53.23896 -29.02854,-28.82065 -53.89957,-54.35372 -55.26897,-56.74016 -1.36941,-2.38644 -3.00184,-9.86542 -3.62763,-16.61994 l -1.13781,-12.28097 -16.17849,10.66956 c -16.4824,10.87 -39.58927,20.85888 -63.68861,27.532 -10.33155,2.86082 -21.66129,3.6756 -49.21765,3.53948 -32.31029,-0.15967 -37.65214,-0.74166 -54.84873,-5.97662 C 38.618312,372.71463 -24.130518,256.78303 10.630983,146.52692 33.451264,74.145825 92.316817,20.875121 166.53532,5.4404296 188.19833,0.93532963 228.42542,0.8185062 248.84068,5.2014067 331.97095,23.048433 393.43304,84.919185 410.69867,168.13559 421.62721,220.8087 409.05461,282.31066 378.63118,325.0017 l -7.25808,10.18474 11.41175,1.1517 c 6.27647,0.63345 13.3643,2.27308 15.75074,3.64368 2.38644,1.37058 28.5017,26.76836 58.0339,56.4395 53.64504,53.89743 53.69492,53.95631 53.69492,63.38202 0,8.94848 -0.97788,10.42542 -18.98305,28.67145 -19.02145,19.27591 -26.27652,23.49735 -37.42373,21.77552 z M 239.84957,332.83215 c 56.03616,-14.45682 96.93605,-67.03694 96.82345,-124.4744 -0.07,-35.70288 -12.6361,-65.3378 -38.76873,-91.42919 C 271.75906,90.824598 243.24105,79.298406 205.44126,79.557554 139.8993,80.006899 85.412985,131.27486 79.478159,198.08036 c -3.390668,38.16714 14.779544,82.55315 44.046601,107.59659 12.67871,10.849 37.42554,23.65785 52.97598,27.42012 16.39577,3.96681 47.44956,3.83694 63.34883,-0.26492 z"
     id="path3715"
     inkscape:connector-curvature="0" />
  <path
     style="fill:#ffffff;stroke-width:2.16949153"
     d="m 439.26927,497.04257 c -8.08489,-7.03338 -33.88017,-32.17237 -57.32285,-55.86441 l -42.62306,-43.07647 -1.52216,-13.55932 c -0.83719,-7.45762 -1.89546,-13.55932 -2.35175,-13.55932 -0.45629,0 -5.97398,3.28342 -12.26156,7.2965 -16.38074,10.45506 -30.38017,17.22856 -52.6523,25.4753 l -19.52542,7.2297 -42.30509,0.0671 -42.30508,0.067 -22.26436,-7.85418 C 114.9668,392.97456 90.768599,378.22664 68.251362,357.01573 26.362563,317.55713 5.4728556,272.54216 3.1779708,216.78989 1.8967415,185.66352 5.0380344,165.51928 15.819499,135.72325 41.632362,64.38592 109.63063,11.818603 186.04398,4.1280647 289.35389,-6.2694502 381.25512,58.283275 407.40116,159.61249 c 5.07164,19.65527 5.47354,24.38755 4.59298,54.08243 -0.80134,27.0239 -1.93412,35.7732 -6.67991,51.5945 -6.04928,20.16679 -18.9707,47.57163 -28.29641,60.01342 -3.08049,4.10978 -5.60087,8.18869 -5.60087,9.06423 0,0.87554 5.61356,2.26011 12.47458,3.07681 l 12.47457,1.48493 53.66231,53.36067 c 29.51426,29.34838 55.1698,56.53749 57.01228,60.42027 2.91628,6.14556 2.95685,7.98299 0.31332,14.19186 -3.64236,8.55487 -33.1597,37.56403 -41.41616,40.70313 -9.42876,3.5848 -11.22382,2.87388 -26.66858,-10.56217 z M 242.24206,332.94928 c 21.13178,-5.50413 37.67444,-15.61437 56.52142,-34.54373 26.75701,-26.87394 37.9416,-53.6461 37.9416,-90.81939 0,-35.15457 -10.28046,-60.90894 -34.71186,-86.95937 C 276.62956,93.582358 252.7245,81.903171 217.02771,79.115594 129.9549,72.316047 61.058638,154.42931 82.732616,239.17375 c 7.154325,27.97314 23.729924,54.68119 43.067864,69.39466 12.43049,9.45787 38.28669,22.64294 49.63519,25.31089 13.88917,3.26524 52.77818,2.72386 66.80639,-0.93002 z"
     id="path3717"
     inkscape:connector-curvature="0" />
</svg>
