<?xml version="1.0" standalone="no"?>
<!DOCTYPE svg PUBLIC "-//W3C//DTD SVG 20010904//EN"
 "http://www.w3.org/TR/2001/REC-SVG-20010904/DTD/svg10.dtd">
<svg version="1.0" xmlns="http://www.w3.org/2000/svg"
 width="171.000000pt" height="171.000000pt" viewBox="0 0 171.000000 171.000000"
 preserveAspectRatio="xMidYMid meet">
<metadata>
Created by potrace 1.11, written by Peter Selinger 2001-2013
</metadata>
<g transform="translate(0.000000,171.000000) scale(0.100000,-0.100000)"
fill="#000000" stroke="none">
<path d="M477 1702 c-15 -3 -17 -24 -17 -195 -1 -273 -11 -520 -21 -531 -5 -6
-100 -11 -211 -12 -112 0 -209 -2 -215 -3 -32 -3 -4 -43 101 -145 81 -78 117
-120 121 -141 3 -16 12 -44 20 -62 12 -28 12 -35 -6 -69 -26 -52 -24 -87 7
-123 50 -60 143 -60 204 0 39 40 62 85 89 177 20 67 24 72 44 66 12 -4 32 -14
44 -23 20 -14 109 -146 173 -256 13 -22 39 -59 58 -83 18 -23 38 -59 44 -80 5
-20 19 -58 31 -84 19 -41 30 -51 84 -77 34 -17 73 -31 86 -31 13 0 32 -7 43
-15 24 -18 29 -18 47 0 13 13 13 22 -4 77 -18 56 -19 69 -7 133 12 66 17 74
74 133 33 34 68 62 77 62 64 0 167 89 167 146 1 24 2 26 10 12 8 -13 19 -15
48 -11 20 3 44 9 53 14 17 9 42 82 60 175 11 58 10 64 -21 135 -28 65 -32 88
-36 194 -7 143 -7 145 -36 145 -13 0 -43 12 -67 25 -43 25 -109 30 -139 11 -7
-4 -12 -5 -12 -2 0 3 -12 1 -26 -4 -16 -6 -31 -7 -38 -1 -21 17 -76 24 -76 9
0 -8 -3 -9 -8 -3 -4 6 -29 11 -57 13 -30 2 -55 10 -62 19 -7 9 -31 17 -58 19
-25 1 -61 12 -79 23 -18 12 -42 21 -53 21 -41 0 -48 25 -51 187 l-4 153 -86 1
c-48 0 -130 1 -183 2 -53 1 -103 1 -112 -1z m349 -198 l-3 -156 41 -18 c102
-46 133 -58 166 -65 19 -4 44 -13 55 -20 25 -16 60 -23 155 -30 41 -4 78 -9
82 -11 4 -3 19 3 33 12 33 22 111 14 182 -17 l52 -24 4 -115 c3 -92 9 -129 29
-183 22 -59 24 -75 16 -125 -15 -95 -65 -176 -80 -130 -3 7 -18 13 -34 13 -24
1 -30 6 -32 31 -7 56 -54 84 -101 59 -20 -10 -31 -11 -39 -3 -12 12 -13 8 -29
-87 -5 -34 -13 -50 -23 -50 -20 0 -28 21 -29 76 -1 49 -23 84 -35 53 -3 -8 -6
-31 -6 -49 0 -19 -5 -46 -10 -61 -10 -26 -11 -26 -31 -8 -18 16 -20 27 -15 68
7 59 13 67 62 75 44 7 64 32 48 59 -15 23 -34 22 -63 -5 -28 -25 -41 -22 -41
11 0 27 -24 51 -40 41 -6 -4 -18 -24 -27 -46 -8 -21 -19 -39 -24 -39 -14 0
-11 -32 5 -49 8 -9 17 -31 21 -48 6 -29 4 -32 -12 -27 -31 12 -62 45 -56 62 4
8 -2 21 -12 28 -16 12 -21 11 -37 -3 -24 -21 -23 -42 4 -70 12 -13 17 -23 11
-23 -6 0 -13 6 -16 13 -2 6 -11 -5 -20 -25 -24 -56 -47 -45 -47 21 0 45 -20
91 -36 84 -10 -3 -14 -21 -14 -57 0 -63 -20 -97 -47 -80 -10 6 -19 24 -21 40
-5 59 -22 103 -37 98 -28 -11 -9 -146 23 -170 21 -15 164 -13 185 4 11 10 17
9 27 -3 19 -22 56 -18 86 10 l26 25 31 -22 c25 -18 46 -22 116 -23 47 -1 91 0
97 2 5 2 10 28 11 58 1 59 14 85 44 85 20 0 25 -13 33 -100 5 -44 2 -60 -13
-79 -16 -21 -28 -25 -88 -26 -79 -2 -93 -8 -93 -36 0 -12 -16 -35 -36 -52 -40
-35 -64 -75 -64 -106 0 -11 -9 -22 -20 -26 -24 -8 -24 -12 0 -105 11 -41 20
-78 20 -82 0 -14 -37 -8 -95 14 -65 25 -87 51 -112 139 -9 34 -30 72 -53 99
-53 61 -164 270 -195 370 -15 47 -29 121 -32 165 -3 44 -10 86 -16 93 -20 26
-56 -27 -88 -130 -28 -91 -32 -98 -57 -100 -46 -2 -50 -3 -58 -11 -4 -4 -15
-7 -24 -7 -23 0 -47 -47 -32 -62 9 -9 24 -5 64 15 31 16 56 23 61 18 6 -6 -2
-44 -19 -96 -35 -107 -79 -159 -137 -163 -64 -4 -104 32 -91 83 8 30 52 56 83
48 20 -5 21 -10 15 -48 -7 -51 14 -67 46 -35 48 48 5 120 -75 126 -16 1 -33 3
-37 3 -3 1 -12 18 -18 39 -26 84 -45 112 -132 192 -58 53 -85 85 -78 90 7 4
98 8 203 9 105 1 193 4 195 5 7 8 10 114 11 409 l1 317 170 0 169 0 -3 -156z
m-183 -726 c9 -51 14 -94 12 -96 -3 -3 -63 24 -74 34 -5 5 32 154 39 154 4 0
14 -41 23 -92z m417 -188 c0 -5 -4 -10 -10 -10 -5 0 -10 5 -10 10 0 6 5 10 10
10 6 0 10 -4 10 -10z"/>
</g>
</svg>
